<svg width="128" height="21" viewBox="0 0 128 21" fill="none" xmlns="http://www.w3.org/2000/svg">
<path d="M54.3334 20L49.9584 15.8333L50.4834 17.5H39.75C39.1975 17.5 38.6676 17.2805 38.2769 16.8898C37.8862 16.4991 37.6667 15.9692 37.6667 15.4166V2.91665C37.6667 2.36411 37.8862 1.83421 38.2769 1.44351C38.6676 1.05281 39.1975 0.833313 39.75 0.833313H52.25C52.8026 0.833313 53.3325 1.05281 53.7232 1.44351C54.1139 1.83421 54.3334 2.36411 54.3334 2.91665V20ZM46 5.66665C43.7667 5.66665 42.2 6.62498 42.2 6.62498C43.0584 5.85831 44.5584 5.41665 44.5584 5.41665L44.4167 5.27498C43.0084 5.29998 41.7334 6.27498 41.7334 6.27498C40.3 9.26665 40.3917 11.85 40.3917 11.85C41.5584 13.3583 43.2917 13.25 43.2917 13.25L43.8834 12.5C42.8417 12.275 42.1834 11.35 42.1834 11.35C42.1834 11.35 43.75 12.4166 46 12.4166C48.25 12.4166 49.8167 11.35 49.8167 11.35C49.8167 11.35 49.1584 12.275 48.1167 12.5L48.7084 13.25C48.7084 13.25 50.4417 13.3583 51.6084 11.85C51.6084 11.85 51.7 9.26665 50.2667 6.27498C50.2667 6.27498 48.9917 5.29998 47.5834 5.27498L47.4417 5.41665C47.4417 5.41665 48.9417 5.85831 49.8 6.62498C49.8 6.62498 48.2334 5.66665 46 5.66665ZM44.275 8.82498C44.8167 8.82498 45.2584 9.29998 45.25 9.88331C45.25 10.4583 44.8167 10.9416 44.275 10.9416C43.7417 10.9416 43.3084 10.4583 43.3084 9.88331C43.3084 9.29998 43.7334 8.82498 44.275 8.82498ZM47.75 8.82498C48.2917 8.82498 48.725 9.29998 48.725 9.88331C48.725 10.4583 48.2917 10.9416 47.75 10.9416C47.2167 10.9416 46.7834 10.4583 46.7834 9.88331C46.7834 9.29998 47.2084 8.82498 47.75 8.82498Z" fill="white"/>
<path d="M10 1.66669C8.90567 1.66669 7.82204 1.88224 6.81099 2.30102C5.79994 2.71981 4.88129 3.33364 4.10746 4.10746C2.54466 5.67027 1.66669 7.78988 1.66669 10C1.66669 13.6834 4.05835 16.8084 7.36669 17.9167C7.78335 17.9834 7.91669 17.725 7.91669 17.5V16.0917C5.60835 16.5917 5.11669 14.975 5.11669 14.975C4.73335 14.0084 4.19169 13.75 4.19169 13.75C3.43335 13.2334 4.25002 13.25 4.25002 13.25C5.08335 13.3084 5.52502 14.1084 5.52502 14.1084C6.25002 15.375 7.47502 15 7.95002 14.8C8.02502 14.2584 8.24169 13.8917 8.47502 13.6834C6.62502 13.475 4.68335 12.7584 4.68335 9.58335C4.68335 8.65835 5.00002 7.91669 5.54169 7.32502C5.45835 7.11669 5.16669 6.25002 5.62502 5.12502C5.62502 5.12502 6.32502 4.90002 7.91669 5.97502C8.57502 5.79169 9.29169 5.70002 10 5.70002C10.7084 5.70002 11.425 5.79169 12.0834 5.97502C13.675 4.90002 14.375 5.12502 14.375 5.12502C14.8334 6.25002 14.5417 7.11669 14.4584 7.32502C15 7.91669 15.3167 8.65835 15.3167 9.58335C15.3167 12.7667 13.3667 13.4667 11.5084 13.675C11.8084 13.9334 12.0834 14.4417 12.0834 15.2167V17.5C12.0834 17.725 12.2167 17.9917 12.6417 17.9167C15.95 16.8 18.3334 13.6834 18.3334 10C18.3334 8.90567 18.1178 7.82204 17.699 6.81099C17.2802 5.79994 16.6664 4.88129 15.8926 4.10746C15.1188 3.33364 14.2001 2.71981 13.189 2.30102C12.178 1.88224 11.0944 1.66669 10 1.66669Z" fill="white"/>
<path d="M126.717 4.99998C126.075 5.29165 125.383 5.48331 124.667 5.57498C125.4 5.13331 125.967 4.43331 126.233 3.59165C125.542 4.00831 124.775 4.29998 123.967 4.46665C123.308 3.74998 122.383 3.33331 121.333 3.33331C119.375 3.33331 117.775 4.93331 117.775 6.90831C117.775 7.19165 117.808 7.46665 117.867 7.72498C114.9 7.57498 112.258 6.14998 110.5 3.99165C110.192 4.51665 110.017 5.13331 110.017 5.78331C110.017 7.02498 110.642 8.12498 111.608 8.74998C111.017 8.74998 110.467 8.58331 109.983 8.33331V8.35831C109.983 10.0916 111.217 11.5416 112.85 11.8666C112.326 12.0102 111.775 12.0301 111.242 11.925C111.468 12.6354 111.911 13.257 112.509 13.7024C113.107 14.1479 113.83 14.3947 114.575 14.4083C113.311 15.4087 111.745 15.9494 110.133 15.9416C109.85 15.9416 109.567 15.925 109.283 15.8916C110.867 16.9083 112.75 17.5 114.767 17.5C121.333 17.5 124.942 12.05 124.942 7.32498C124.942 7.16665 124.942 7.01665 124.933 6.85831C125.633 6.35831 126.233 5.72498 126.717 4.99998Z" fill="white"/>
<path d="M84.0834 13.8417C84.15 13.9167 84.15 14.075 84.0834 14.1667C83.475 14.75 82.3417 14.8 82 14.8C81.675 14.8 80.5417 14.75 79.95 14.1667C79.8667 14.075 79.8667 13.9167 79.95 13.8417C80.0417 13.7584 80.1834 13.7584 80.2667 13.8417C80.65 14.225 81.4417 14.3334 82 14.3334C82.575 14.3334 83.3834 14.225 83.75 13.8417C83.8417 13.7584 83.9834 13.7584 84.0834 13.8417ZM80.9584 11.8667C80.9584 11.3917 80.5667 11 80.0917 11C79.6167 11 79.225 11.3917 79.225 11.8667C79.225 12.3417 79.6167 12.7417 80.0917 12.7334C80.5667 12.7334 80.9584 12.3417 80.9584 11.8667ZM83.9084 11C83.4334 11 83.0417 11.4167 83.0417 11.875C83.0417 12.3334 83.4334 12.7417 83.9084 12.7417C84.3834 12.7417 84.775 12.3417 84.775 11.875C84.775 11.4167 84.3834 11 83.9084 11ZM90.3334 11C90.3334 15.5834 86.5834 19.3334 82 19.3334C77.4167 19.3334 73.6667 15.5834 73.6667 11C73.6667 6.41669 77.4167 2.66669 82 2.66669C86.5834 2.66669 90.3334 6.41669 90.3334 11ZM87.5584 11C87.5584 10.325 87 9.78335 86.35 9.78335C86.0167 9.78335 85.7167 9.91669 85.5 10.125C84.6667 9.52502 83.525 9.14169 82.25 9.09169L82.8084 6.48335L84.6167 6.87502C84.6334 7.33335 85.0167 7.70002 85.4834 7.70002C85.9584 7.70002 86.35 7.30835 86.35 6.83335C86.35 6.35835 85.9584 5.96669 85.4834 5.96669C85.1417 5.96669 84.8417 6.16669 84.7084 6.45835L82.6834 6.02502C82.625 6.00002 82.5667 6.02502 82.525 6.05835C82.475 6.09169 82.45 6.14169 82.4417 6.20002L81.825 9.10002C80.5334 9.14169 79.3667 9.52502 78.5167 10.1334C78.3 9.92502 78 9.80002 77.675 9.80002C77 9.80002 76.4584 10.3417 76.4584 11C76.4584 11.5084 76.7584 11.925 77.175 12.1167C77.1584 12.25 77.15 12.35 77.15 12.4834C77.15 14.3334 79.325 15.875 82 15.875C84.6917 15.875 86.875 14.3584 86.875 12.4834C86.875 12.3667 86.8667 12.25 86.8417 12.1167C87.2584 11.925 87.5584 11.5 87.5584 11Z" fill="white"/>
</svg>
